<mxfile host="65bd71144e">
    <diagram id="3yHFm8MGEfXHyI14O7nN" name="Page-1">
        <mxGraphModel dx="1074" dy="747" grid="1" gridSize="10" guides="1" tooltips="1" connect="1" arrows="1" fold="1" page="1" pageScale="1" pageWidth="827" pageHeight="1169" math="0" shadow="0">
            <root>
                <mxCell id="0"/>
                <mxCell id="1" parent="0"/>
                <mxCell id="2" value="Pool" style="swimlane;html=1;childLayout=stackLayout;resizeParent=1;resizeParentMax=0;horizontal=0;startSize=20;horizontalStack=0;whiteSpace=wrap;" vertex="1" parent="1">
                    <mxGeometry x="90" y="390" width="660" height="600" as="geometry"/>
                </mxCell>
                <mxCell id="3" value="Lane 1" style="swimlane;html=1;startSize=20;horizontal=0;" vertex="1" parent="2">
                    <mxGeometry x="20" width="640" height="120" as="geometry"/>
                </mxCell>
                <mxCell id="9" value="" style="points=[[0.145,0.145,0],[0.5,0,0],[0.855,0.145,0],[1,0.5,0],[0.855,0.855,0],[0.5,1,0],[0.145,0.855,0],[0,0.5,0]];shape=mxgraph.bpmn.event;html=1;verticalLabelPosition=bottom;labelBackgroundColor=#ffffff;verticalAlign=top;align=center;perimeter=ellipsePerimeter;outlineConnect=0;aspect=fixed;outline=standard;symbol=general;" vertex="1" parent="3">
                    <mxGeometry x="50" y="35" width="50" height="50" as="geometry"/>
                </mxCell>
                <mxCell id="10" value="" style="points=[[0.145,0.145,0],[0.5,0,0],[0.855,0.145,0],[1,0.5,0],[0.855,0.855,0],[0.5,1,0],[0.145,0.855,0],[0,0.5,0]];shape=mxgraph.bpmn.event;html=1;verticalLabelPosition=bottom;labelBackgroundColor=#ffffff;verticalAlign=top;align=center;perimeter=ellipsePerimeter;outlineConnect=0;aspect=fixed;outline=standard;symbol=message;" vertex="1" parent="3">
                    <mxGeometry x="150" y="35" width="50" height="50" as="geometry"/>
                </mxCell>
                <mxCell id="4" value="Lane 2" style="swimlane;html=1;startSize=20;horizontal=0;" vertex="1" parent="2">
                    <mxGeometry x="20" y="120" width="640" height="120" as="geometry"/>
                </mxCell>
                <mxCell id="11" value="" style="points=[[0.145,0.145,0],[0.5,0,0],[0.855,0.145,0],[1,0.5,0],[0.855,0.855,0],[0.5,1,0],[0.145,0.855,0],[0,0.5,0]];shape=mxgraph.bpmn.event;html=1;verticalLabelPosition=bottom;labelBackgroundColor=#ffffff;verticalAlign=top;align=center;perimeter=ellipsePerimeter;outlineConnect=0;aspect=fixed;outline=end;symbol=message;" vertex="1" parent="4">
                    <mxGeometry x="150" y="40" width="50" height="50" as="geometry"/>
                </mxCell>
                <mxCell id="8" value="Lane 3" style="swimlane;html=1;startSize=20;horizontal=0;" vertex="1" parent="2">
                    <mxGeometry x="20" y="240" width="640" height="120" as="geometry"/>
                </mxCell>
                <mxCell id="6" value="Lane 3" style="swimlane;html=1;startSize=20;horizontal=0;" vertex="1" parent="2">
                    <mxGeometry x="20" y="360" width="640" height="120" as="geometry"/>
                </mxCell>
                <mxCell id="5" value="Lane 3" style="swimlane;html=1;startSize=20;horizontal=0;" vertex="1" parent="2">
                    <mxGeometry x="20" y="480" width="640" height="120" as="geometry"/>
                </mxCell>
                <mxCell id="12" style="edgeStyle=none;html=1;entryX=0.5;entryY=0;entryDx=0;entryDy=0;entryPerimeter=0;" edge="1" parent="2" source="10" target="11">
                    <mxGeometry relative="1" as="geometry"/>
                </mxCell>
            </root>
        </mxGraphModel>
    </diagram>
</mxfile>